<svg xmlns="http://www.w3.org/2000/svg" width="1024" height="1024" viewBox="55.733001708984375 -41 912.780517578125 1106" class="colorable-icon reset-top-left-margin" data-export-recolorable-svg="true" overflow="visible" xmlns:xlink="http://www.w3.org/1999/xlink" fill="rgb(0, 0, 0)" stroke="none"><g fill="none" stroke="url(&quot;#theme-accent-gradient-linear&quot;) rgb(73, 80, 188)" stroke-width="45" stroke-linecap="round" stroke-linejoin="round"><path d="M 511.149,4.0 C 450.115,47.454 418.129,67.528 369.727,92.789 C 345.932,103.523 319.506,114.139 296.555,122.355 C 270.236,130.402 219.136,142.717 163.184,152.751 L 102.409,159.166" data-line="nan" stroke-width="45.0" fill="none" stroke="url(&quot;#theme-accent-gradient-linear&quot;) rgb(73, 80, 188)"/><path d="M 920.766,158.502 C 867.264,152.751 829.102,147.131 804.367,142.645 C 776.522,136.245 741.778,126.895 701.286,113.35 C 653.563,93.27 608.061,69.422 583.769,54.742 Q 555.176,36.019 511.149,4.0" data-line="nan" stroke-width="45.0" fill="none" stroke="url(&quot;#theme-accent-gradient-linear&quot;) rgb(73, 80, 188)"/><path d="M 511.664,1020.0 C 472.0,995.867 427.64,965.807 389.632,937.483 C 343.29,900.283 307.412,868.166 258.525,820.843 C 229.296,789.527 202.856,757.564 178.63,723.918 C 158.672,691.577 141.841,658.957 128.928,628.628 C 116.73,592.116 109.423,561.279 103.418,522.83 L 100.733,485.075" data-line="nan" stroke-width="45.0" fill="none" stroke="url(&quot;#theme-accent-gradient-linear&quot;) rgb(73, 80, 188)"/><path d="M 101.492,226.831 L 102.409,159.166" data-line="nan" stroke-width="45.0" fill="none" stroke="url(&quot;#theme-accent-gradient-linear&quot;) rgb(73, 80, 188)"/><path d="M 825.862,751.488 C 801.906,781.315 777.41,808.478 726.603,859.048 C 679.801,901.039 641.814,931.744 590.627,969.873 Q 550.266,996.938 511.664,1020.0" data-line="nan" stroke-width="45.0" fill="none" stroke="url(&quot;#theme-accent-gradient-linear&quot;) rgb(73, 80, 188)"/><path d="M 920.766,158.502 L 923.457,469.605" data-line="2.0" stroke-width="45.0" fill="none" stroke="url(&quot;#theme-accent-gradient-linear&quot;) rgb(73, 80, 188)"/><path d="M 100.733,485.075 L 101.492,226.831" data-line="7.0" stroke-width="45.0" fill="none" stroke="url(&quot;#theme-accent-gradient-linear&quot;) rgb(73, 80, 188)"/><path d="M 440.982,628.642 L 727.83,337.319" data-line="12.0" stroke-width="45.0" fill="none" stroke="url(&quot;#theme-accent-gradient-linear&quot;) rgb(73, 80, 188)"/><path d="M 303.166,486.046 L 440.982,628.642" data-line="13.0" stroke-width="45.0" fill="none" stroke="url(&quot;#theme-accent-gradient-linear&quot;) rgb(73, 80, 188)"/><path d="M 923.5135112029415,469.6052884501284 A 460.778726847988,460.778726847988 0 0,1 825.5807235185549,751.2678296690806" data-line="14.0" stroke-width="45.0" fill="none" stroke="url(&quot;#theme-accent-gradient-linear&quot;) rgb(73, 80, 188)"/></g></svg>