<svg xmlns="http://www.w3.org/2000/svg" width="1024" height="1024" viewBox="177.6199951171875 -41.20470094680786 668.7742919921875 1106.2047119140625" class="colorable-icon reset-top-left-margin" data-export-recolorable-svg="true" overflow="visible" xmlns:xlink="http://www.w3.org/1999/xlink" fill="rgb(0, 0, 0)" stroke="none"><g fill="none" stroke="url(&quot;#theme-accent-gradient-linear&quot;) rgb(73, 80, 188)" stroke-width="45" stroke-linecap="round" stroke-linejoin="round"><path d="M 222.62,398.525 C 223.632,487.974 226.497,514.691 231.767,541.429 C 240.666,570.677 252.03,597.742 266.561,624.168 C 283.325,648.253 304.493,672.575 330.971,697.257 C 355.522,715.309 381.811,730.507 409.098,742.612 C 439.148,752.177 454.982,755.762 472.785,758.651 C 504.157,760.839 539.957,759.797 572.343,755.091 C 604.53,746.446 631.743,735.804 658.743,721.815 C 685.671,703.756 706.967,685.739 731.891,659.327 C 751.938,632.562 767.835,605.636 780.197,578.531 C 790.936,545.917 796.659,518.961 800.567,486.638 Q 801.427,459.638 801.393,404.207" data-line="nan" stroke-width="45.0" fill="none" stroke="url(&quot;#theme-accent-gradient-linear&quot;) rgb(73, 80, 188)"/><path d="M 346.887,160.275 Q 345.935,195.029 345.882,240.842" data-line="nan" stroke-width="45.0" fill="none" stroke="url(&quot;#theme-accent-gradient-linear&quot;) rgb(73, 80, 188)"/><path d="M 345.967,458.783 C 347.084,493.338 349.449,508.569 353.22,523.59 C 357.713,536.537 363.556,549.679 371.277,563.499 L 380.173,576.276" data-line="nan" stroke-width="45.0" fill="none" stroke="url(&quot;#theme-accent-gradient-linear&quot;) rgb(73, 80, 188)"/><path d="M 677.895,167.436 C 675.395,143.716 669.61,120.113 662.125,100.589 L 650.987,79.958" data-line="nan" stroke-width="45.0" fill="none" stroke="url(&quot;#theme-accent-gradient-linear&quot;) rgb(73, 80, 188)"/><path d="M 646.8881276675287,74.9851395184551 A 164.35917824868733,164.35917824868733 0 0,0 347.3160001682054,160.2955363794692" data-line="0.0" stroke-width="45.0" fill="none" stroke="url(&quot;#theme-accent-gradient-linear&quot;) rgb(73, 80, 188)"/><path d="M 647.163,74.796 L 650.987,79.958" data-line="1.0" stroke-width="45.0" fill="none" stroke="url(&quot;#theme-accent-gradient-linear&quot;) rgb(73, 80, 188)"/><path d="M 512.665,760.757 L 511.32,1019.893" data-line="4.0" stroke-width="45.0" fill="none" stroke="url(&quot;#theme-accent-gradient-linear&quot;) rgb(73, 80, 188)"/><path d="M 299.81,1019.957 L 718.93,1020.0" data-line="5.0" stroke-width="45.0" fill="none" stroke="url(&quot;#theme-accent-gradient-linear&quot;) rgb(73, 80, 188)"/><path d="M 379.95809917668765,576.4370457557206 A 165.05820370027163,165.05820370027163 0 0,0 676.9666890602933,470.79170631706614" data-line="7.0" stroke-width="45.0" fill="none" stroke="url(&quot;#theme-accent-gradient-linear&quot;) rgb(73, 80, 188)"/><path d="M 345.882,240.842 L 345.967,458.783" data-line="7.0" stroke-width="45.0" fill="none" stroke="url(&quot;#theme-accent-gradient-linear&quot;) rgb(73, 80, 188)"/><path d="M 678.024,470.749 L 677.895,167.436" data-line="9.0" stroke-width="45.0" fill="none" stroke="url(&quot;#theme-accent-gradient-linear&quot;) rgb(73, 80, 188)"/></g></svg>