<svg xmlns="http://www.w3.org/2000/svg" width="1024" height="1024" viewBox="-33.24300003051758 -40.99499988555908 1090.4859619140625 1105.9949951171875" class="colorable-icon reset-top-left-margin" data-export-recolorable-svg="true" overflow="visible" xmlns:xlink="http://www.w3.org/1999/xlink" fill="rgb(0, 0, 0)" stroke="none"><g fill="none" stroke="url(&quot;#theme-accent-gradient-linear&quot;) rgb(73, 80, 188)" stroke-width="45" stroke-linecap="round" stroke-linejoin="round"><path d="M 820.362,739.146 C 841.371,754.529 848.969,762.086 852.145,766.761 C 854.357,771.485 856.44,780.945 856.433,790.475 C 854.184,800.14 848.459,809.779 844.291,814.146 C 834.662,820.498 829.655,822.369 820.018,824.106 L 791.917,824.627" data-line="nan" stroke-width="45.0" fill="none" stroke="url(&quot;#theme-accent-gradient-linear&quot;) rgb(73, 80, 188)"/><path d="M 818.568,737.833 C 840.989,721.222 850.32,711.863 859.76,697.852 C 865.323,684.695 868.014,674.161 869.972,661.982 C 872.403,629.084 872.076,600.895 869.436,574.787 C 865.753,555.85 859.219,531.766 848.095,510.897 C 840.357,499.275 828.569,485.519 812.481,471.535 C 795.63,460.804 776.608,452.272 759.827,447.372 C 740.176,444.355 703.821,443.984 685.921,445.717 C 667.229,450.169 648.674,457.315 630.16,468.067 C 616.194,479.237 603.037,492.687 595.627,502.03 C 586.11,516.994 578.828,531.263 570.45,561.581 C 566.754,583.133 564.701,613.989 565.151,646.1" data-line="nan" stroke-width="45.0" fill="none" stroke="url(&quot;#theme-accent-gradient-linear&quot;) rgb(73, 80, 188)"/><path d="M 250.174,429.84 C 144.844,429.972 135.553,429.501 126.193,427.694 C 116.727,423.913 112.049,421.012 103.694,413.163 C 100.437,408.601 96.216,399.141 94.286,385.315" data-line="nan" stroke-width="45.0" fill="none" stroke="url(&quot;#theme-accent-gradient-linear&quot;) rgb(73, 80, 188)"/><path d="M 94.271,232.397 C 94.783,225.581 96.635,217.134 100.951,207.965 C 108.48,199.4 112.981,195.967 121.948,191.346 C 128.834,189.287 134.974,188.646 204.219,188.512" data-line="nan" stroke-width="45.0" fill="none" stroke="url(&quot;#theme-accent-gradient-linear&quot;) rgb(73, 80, 188)"/><path d="M 387.023,188.607 C 400.861,190.465 405.728,192.103 415.263,197.561 C 423.301,205.574 426.297,210.138 430.102,219.658 C 431.667,229.151 432.238,243.237 432.274,374.531" data-line="nan" stroke-width="45.0" fill="none" stroke="url(&quot;#theme-accent-gradient-linear&quot;) rgb(73, 80, 188)"/><path d="M 562.152,826.61 C 543.569,825.84 534.068,823.224 524.636,818.098 C 520.27,814.491 513.075,805.626 509.277,796.197 C 508.389,782.601 509.772,773.664 511.36,769.135 C 516.968,760.085 520.855,756.068 529.657,750.372 C 543.545,746.691 557.463,746.108 622.458,746.482" data-line="nan" stroke-width="45.0" fill="none" stroke="url(&quot;#theme-accent-gradient-linear&quot;) rgb(73, 80, 188)"/><path d="M 432.274,374.531 C 431.151,393.493 428.296,403.359 422.07,413.107 C 412.819,421.445 402.988,426.552 393.392,429.043 Q 383.941,430.089 360.522,430.213" data-line="nan" stroke-width="45.0" fill="none" stroke="url(&quot;#theme-accent-gradient-linear&quot;) rgb(73, 80, 188)"/><path d="M 992.521,4.688 L 557.775,4.591" data-line="0.0" stroke-width="45.0" fill="none" stroke="url(&quot;#theme-accent-gradient-linear&quot;) rgb(73, 80, 188)"/><path d="M 992.521,4.688 L 992.425,370.684" data-line="1.0" stroke-width="45.0" fill="none" stroke="url(&quot;#theme-accent-gradient-linear&quot;) rgb(73, 80, 188)"/><path d="M 992.425,370.684 L 558.089,370.546" data-line="2.0" stroke-width="45.0" fill="none" stroke="url(&quot;#theme-accent-gradient-linear&quot;) rgb(73, 80, 188)"/><path d="M 777.016,370.719 L 776.973,4.005" data-line="3.0" stroke-width="45.0" fill="none" stroke="url(&quot;#theme-accent-gradient-linear&quot;) rgb(73, 80, 188)"/><path d="M 558.089,370.546 L 557.775,4.591" data-line="6.0" stroke-width="45.0" fill="none" stroke="url(&quot;#theme-accent-gradient-linear&quot;) rgb(73, 80, 188)"/><path d="M 815.607,739.986 L 617.198,741.628" data-line="14.0" stroke-width="45.0" fill="none" stroke="url(&quot;#theme-accent-gradient-linear&quot;) rgb(73, 80, 188)"/><path d="M 578.828,531.263 L 11.757,532.018" data-line="17.0" stroke-width="45.0" fill="none" stroke="url(&quot;#theme-accent-gradient-linear&quot;) rgb(73, 80, 188)"/><path d="M 564.848,634.735 L 75.498,635.964" data-line="19.0" stroke-width="45.0" fill="none" stroke="url(&quot;#theme-accent-gradient-linear&quot;) rgb(73, 80, 188)"/><path d="M 75.507,1018.437 L 75.37,531.838" data-line="20.0" stroke-width="45.0" fill="none" stroke="url(&quot;#theme-accent-gradient-linear&quot;) rgb(73, 80, 188)"/><path d="M 565.5718562631718,646.1187223170234 A 103.66754496994608,103.66754496994608 0 0,0 617.7072427596875,740.7367383844296" data-line="22.0" stroke-width="45.0" fill="none" stroke="url(&quot;#theme-accent-gradient-linear&quot;) rgb(73, 80, 188)"/><path d="M 94.286,385.315 L 94.271,232.397" data-line="24.0" stroke-width="45.0" fill="none" stroke="url(&quot;#theme-accent-gradient-linear&quot;) rgb(73, 80, 188)"/><path d="M 264.015,531.648 L 263.912,430.005" data-line="24.0" stroke-width="45.0" fill="none" stroke="url(&quot;#theme-accent-gradient-linear&quot;) rgb(73, 80, 188)"/><path d="M 687.207,825.779 L 686.491,993.552" data-line="26.0" stroke-width="45.0" fill="none" stroke="url(&quot;#theme-accent-gradient-linear&quot;) rgb(73, 80, 188)"/><path d="M 204.219,188.512 L 387.023,188.607" data-line="26.0" stroke-width="45.0" fill="none" stroke="url(&quot;#theme-accent-gradient-linear&quot;) rgb(73, 80, 188)"/><path d="M 686.562,969.668 L 564.382,1003.829" data-line="27.0" stroke-width="45.0" fill="none" stroke="url(&quot;#theme-accent-gradient-linear&quot;) rgb(73, 80, 188)"/><path d="M 561.06,1015.53 L 564.382,1003.829" data-line="28.0" stroke-width="45.0" fill="none" stroke="url(&quot;#theme-accent-gradient-linear&quot;) rgb(73, 80, 188)"/><path d="M 686.491,993.552 L 686.561,1020.0" data-line="29.0" stroke-width="45.0" fill="none" stroke="url(&quot;#theme-accent-gradient-linear&quot;) rgb(73, 80, 188)"/><path d="M 811.434,1004.002 L 686.88,969.753" data-line="30.0" stroke-width="45.0" fill="none" stroke="url(&quot;#theme-accent-gradient-linear&quot;) rgb(73, 80, 188)"/><path d="M 811.434,1004.002 L 814.117,1017.651" data-line="31.0" stroke-width="45.0" fill="none" stroke="url(&quot;#theme-accent-gradient-linear&quot;) rgb(73, 80, 188)"/><path d="M 1012.243,532.102 L 859.219,531.766" data-line="32.0" stroke-width="45.0" fill="none" stroke="url(&quot;#theme-accent-gradient-linear&quot;) rgb(73, 80, 188)"/><path d="M 951.703,1012.204 L 952.144,531.604" data-line="33.0" stroke-width="45.0" fill="none" stroke="url(&quot;#theme-accent-gradient-linear&quot;) rgb(73, 80, 188)"/><path d="M 791.917,824.627 L 562.152,826.61" data-line="34.0" stroke-width="45.0" fill="none" stroke="url(&quot;#theme-accent-gradient-linear&quot;) rgb(73, 80, 188)"/><path d="M 360.522,430.213 L 250.174,429.84" data-line="37.0" stroke-width="45.0" fill="none" stroke="url(&quot;#theme-accent-gradient-linear&quot;) rgb(73, 80, 188)"/></g></svg>