<svg xmlns="http://www.w3.org/2000/svg" width="1024" height="1024" viewBox="75.71900177001953 -40.91800022125244 872.1636962890625 1105.9180297851562" class="colorable-icon reset-top-left-margin" data-export-recolorable-svg="true" overflow="visible" xmlns:xlink="http://www.w3.org/1999/xlink" fill="rgb(0, 0, 0)" stroke="none"><g fill="none" stroke="url(&quot;#theme-accent-gradient-linear&quot;) rgb(73, 80, 188)" stroke-width="45" stroke-linecap="round" stroke-linejoin="round"><path d="M 739.559,366.981 C 726.946,362.985 715.658,357.406 704.612,350.238 C 690.865,339.032 676.653,325.006 664.493,311.018 C 652.416,294.793 641.87,278.294 631.804,259.775 C 624.565,243.986 618.242,227.133 612.775,208.66 C 609.618,193.912 607.556,175.861 607.819,145.972 C 609.471,131.824 612.579,117.474 617.318,102.46 C 623.487,88.081 630.128,75.989 638.227,63.973 C 649.032,51.063 659.099,41.149 670.39,32.008 C 680.99,24.861 694.758,17.493 707.123,12.29 C 721.253,8.032 735.899,5.238 749.666,4.082 C 765.026,4.347 777.516,5.87 793.177,9.407 C 809.053,14.977 820.353,20.306 833.531,28.057 C 844.256,35.881 856.151,46.254 865.609,56.312 C 874.947,68.395 881.951,79.486 888.975,93.172 C 894.229,106.343 898.722,121.494 901.455,135.2 C 903.073,150.871 903.312,167.534 902.191,183.649 C 899.861,198.246 895.95,214.312 890.244,231.734 C 882.433,250.763 874.514,266.973 865.527,282.983 C 854.463,299.689 843.917,313.533 831.993,327.054 C 820.357,338.435 807.459,348.932 794.93,357.114 Q 784.186,362.566 756.94,371.246" data-line="nan" stroke-width="45.0" fill="none" stroke="url(&quot;#theme-accent-gradient-linear&quot;) rgb(73, 80, 188)"/><path d="M 632.854,713.801 C 638.316,710.944 640.535,708.582 715.139,610.61 C 722.646,604.209 733.387,598.256 741.184,595.748 L 755.37,593.164" data-line="nan" stroke-width="45.0" fill="none" stroke="url(&quot;#theme-accent-gradient-linear&quot;) rgb(73, 80, 188)"/><path d="M 755.37,593.164 C 777.329,600.217 788.06,607.691 793.755,613.62 C 798.148,619.804 803.164,630.011 805.303,637.461 C 806.244,644.817 805.984,652.809 802.949,665.227 Q 796.652,677.59 779.334,703.846" data-line="nan" stroke-width="45.0" fill="none" stroke="url(&quot;#theme-accent-gradient-linear&quot;) rgb(73, 80, 188)"/><path d="M 120.928,836.95 C 121.939,820.355 124.937,801.618 129.453,784.979 C 134.936,770.664 143.194,755.101 152.382,742.297 C 160.867,732.627 172.418,722.177 186.662,711.703 C 200.665,703.51 218.701,695.377 238.712,688.618 C 260.947,683.553 283.241,680.952 288.871,682.396 L 294.947,687.679" data-line="nan" stroke-width="45.0" fill="none" stroke="url(&quot;#theme-accent-gradient-linear&quot;) rgb(73, 80, 188)"/><path d="M 779.334,703.846 C 705.917,812.802 695.72,824.624 683.516,834.057 C 666.892,841.996 650.587,846.0 547.128,853.506" data-line="nan" stroke-width="45.0" fill="none" stroke="url(&quot;#theme-accent-gradient-linear&quot;) rgb(73, 80, 188)"/><path d="M 791.509,444.338 L 756.94,371.246" data-line="0.0" stroke-width="45.0" fill="none" stroke="url(&quot;#theme-accent-gradient-linear&quot;) rgb(73, 80, 188)"/><path d="M 791.509,444.338 L 720.458,444.108" data-line="1.0" stroke-width="45.0" fill="none" stroke="url(&quot;#theme-accent-gradient-linear&quot;) rgb(73, 80, 188)"/><path d="M 756.94,371.246 L 720.458,444.108" data-line="3.0" stroke-width="45.0" fill="none" stroke="url(&quot;#theme-accent-gradient-linear&quot;) rgb(73, 80, 188)"/><path d="M 755.37,593.164 L 755.312,444.282" data-line="5.0" stroke-width="45.0" fill="none" stroke="url(&quot;#theme-accent-gradient-linear&quot;) rgb(73, 80, 188)"/><path d="M 632.854,713.801 L 477.703,680.257" data-line="6.0" stroke-width="45.0" fill="none" stroke="url(&quot;#theme-accent-gradient-linear&quot;) rgb(73, 80, 188)"/><path d="M 477.703,680.257 L 383.632,820.665" data-line="8.0" stroke-width="45.0" fill="none" stroke="url(&quot;#theme-accent-gradient-linear&quot;) rgb(73, 80, 188)"/><path d="M 120.719,1018.889 L 120.928,836.95" data-line="9.0" stroke-width="45.0" fill="none" stroke="url(&quot;#theme-accent-gradient-linear&quot;) rgb(73, 80, 188)"/><path d="M 546.997,1020.0 L 547.128,853.506" data-line="12.0" stroke-width="45.0" fill="none" stroke="url(&quot;#theme-accent-gradient-linear&quot;) rgb(73, 80, 188)"/><path d="M 754.605,880.191 L 755.121,740.957" data-line="13.0" stroke-width="45.0" fill="none" stroke="url(&quot;#theme-accent-gradient-linear&quot;) rgb(73, 80, 188)"/><path d="M 739.559,366.981 L 756.083,371.358" data-line="16.0" stroke-width="45.0" fill="none" stroke="url(&quot;#theme-accent-gradient-linear&quot;) rgb(73, 80, 188)"/><path d="M 294.947,687.679 L 383.632,820.665" data-line="16.0" stroke-width="45.0" fill="none" stroke="url(&quot;#theme-accent-gradient-linear&quot;) rgb(73, 80, 188)"/><circle cx="383.7499442118862" cy="471.7814768097232" r="151.75360664843578" data-line="27.0" stroke-width="45.0" fill="none" stroke="url(&quot;#theme-accent-gradient-linear&quot;) rgb(73, 80, 188)"/><path d="M 223.01,1018.656 L 223.016,862.822" data-line="29.0" stroke-width="45.0" fill="none" stroke="url(&quot;#theme-accent-gradient-linear&quot;) rgb(73, 80, 188)"/></g></svg>