<svg xmlns="http://www.w3.org/2000/svg" width="1024" height="1024" viewBox="-42.28089141845703 6.71466064453125 1107.242919921875 1011.0703125" class="colorable-icon reset-top-left-margin" data-export-recolorable-svg="true" overflow="visible" xmlns:xlink="http://www.w3.org/1999/xlink" fill="rgb(0, 0, 0)" stroke="none"><g fill="none" stroke="url(&quot;#theme-accent-gradient-linear&quot;) rgb(73, 80, 188)" stroke-width="45" stroke-linecap="round" stroke-linejoin="round"><path d="M 436.166,499.097 C 418.687,508.366 401.71,515.292 381.838,521.137 C 364.596,524.286 347.318,525.694 327.55,525.158 C 309.349,522.687 289.536,517.846 271.968,511.556 C 254.293,503.042 237.266,492.478 222.266,480.877 C 209.594,469.034 195.993,453.61 184.832,438.092 C 174.733,420.889 167.288,404.908 160.288,385.376 C 155.397,365.649 152.857,348.39 152.048,328.592 C 152.615,309.903 155.428,290.674 159.981,272.138 C 165.678,255.47 173.845,237.319 183.595,220.413 C 196.063,203.076 209.452,187.953 223.904,174.672 C 238.85,163.528 255.985,153.354 271.252,146.256 C 290.481,139.53 308.966,135.087 327.872,132.449 C 344.886,131.919 363.866,132.951 382.398,136.021 C 400.714,140.868 416.864,146.889 431.494,153.817 C 448.188,163.843 463.348,175.369 476.512,187.742 C 489.221,202.351 500.16,217.686 510.201,235.056 C 517.337,250.504 524.237,269.897 529.312,290.576 C 531.936,308.464 532.661,325.71 532.143,344.981 C 529.811,362.359 525.405,381.733 519.233,400.299 C 512.286,416.316 502.42,434.283 492.266,449.05 C 479.322,464.442 466.216,477.223 452.766,488.105 L 436.166,499.097" data-line="nan" stroke-width="45.0" fill="none" stroke="url(&quot;#theme-accent-gradient-linear&quot;) rgb(73, 80, 188)"/><path d="M 676.439,326.119 C 671.281,319.859 658.049,308.73 645.708,296.786 C 634.637,283.89 625.618,270.884 618.572,257.861 C 613.35,245.007 609.683,232.251 606.714,215.076 C 606.194,202.526 607.829,185.512 612.046,168.483 C 616.949,155.727 623.606,142.761 631.997,130.086 C 642.963,117.105 655.705,104.805 668.56,94.582 C 685.931,83.221 703.074,74.272 720.037,67.137 C 737.289,61.416 758.778,56.196 779.437,52.961 C 795.81,51.627 817.343,51.257 838.757,52.378 C 860.277,55.116 881.807,59.666 899.136,64.819 C 916.199,71.397 933.538,79.889 950.887,90.475 C 972.748,107.822 985.356,120.449 992.772,129.137 C 1001.724,141.826 1006.605,150.401 1012.512,163.611 C 1016.483,176.381 1018.94,189.447 1019.962,202.412 C 1019.62,215.43 1017.934,228.379 1014.803,241.436 C 1009.987,254.622 1005.84,263.243 997.977,276.404 C 988.106,289.387 980.282,297.974 967.462,310.011 C 958.496,317.12 945.566,326.126 932.7,333.822 C 919.376,340.369 902.311,347.185 889.401,351.371 C 871.905,355.775 854.629,358.831 837.441,360.69 C 820.217,361.568 802.995,361.355 767.479,358.226" data-line="nan" stroke-width="45.0" fill="none" stroke="url(&quot;#theme-accent-gradient-linear&quot;) rgb(73, 80, 188)"/><path d="M 4.005,827.69 C 4.809,804.276 7.91,782.446 13.747,759.075 C 21.516,737.544 31.412,716.656 42.819,697.389 C 55.382,680.207 70.364,663.32 87.173,647.738 C 104.291,634.727 125.64,621.675 144.968,612.343 C 166.44,604.374 188.895,598.318 211.221,594.358 L 236.467,592.163" data-line="nan" stroke-width="45.0" fill="none" stroke="url(&quot;#theme-accent-gradient-linear&quot;) rgb(73, 80, 188)"/><path d="M 439.208,592.016 C 462.749,593.0 484.733,595.85 506.256,600.505 C 529.945,608.002 551.202,617.128 570.517,627.715 C 587.556,639.323 605.117,653.781 622.29,671.084 C 636.256,688.221 647.941,705.544 659.218,726.228 C 668.743,748.748 675.891,771.94 680.434,794.119 L 682.493,815.705" data-line="nan" stroke-width="45.0" fill="none" stroke="url(&quot;#theme-accent-gradient-linear&quot;) rgb(73, 80, 188)"/><path d="M 682.64,921.153 C 681.424,932.16 676.718,945.207 670.415,954.643 C 661.735,962.361 650.559,968.179 639.434,971.313 Q 626.569,972.646 602.944,972.785" data-line="nan" stroke-width="45.0" fill="none" stroke="url(&quot;#theme-accent-gradient-linear&quot;) rgb(73, 80, 188)"/><path d="M 61.809,972.605 C 50.664,971.352 40.414,968.991 24.004,961.481" data-line="nan" stroke-width="45.0" fill="none" stroke="url(&quot;#theme-accent-gradient-linear&quot;) rgb(73, 80, 188)"/><path d="M 20.231,957.748 C -10.819458479116927,912.9544305332546 10.203723659128446,869.5275342104427 4.005,827.69" data-line="0.0" stroke-width="45.0" fill="none" stroke="url(&quot;#theme-accent-gradient-linear&quot;) rgb(73, 80, 188)"/><path d="M 20.231,957.748 L 24.004,961.481" data-line="1.0" stroke-width="45.0" fill="none" stroke="url(&quot;#theme-accent-gradient-linear&quot;) rgb(73, 80, 188)"/><path d="M 676.439,326.119 L 639.404,431.365" data-line="5.0" stroke-width="45.0" fill="none" stroke="url(&quot;#theme-accent-gradient-linear&quot;) rgb(73, 80, 188)"/><path d="M 767.479,358.226 L 639.404,431.365" data-line="7.0" stroke-width="45.0" fill="none" stroke="url(&quot;#theme-accent-gradient-linear&quot;) rgb(73, 80, 188)"/><path d="M 236.467,592.163 L 316.147,591.954" data-line="8.0" stroke-width="45.0" fill="none" stroke="url(&quot;#theme-accent-gradient-linear&quot;) rgb(73, 80, 188)"/><path d="M 316.147,591.954 L 439.208,592.016" data-line="9.0" stroke-width="45.0" fill="none" stroke="url(&quot;#theme-accent-gradient-linear&quot;) rgb(73, 80, 188)"/><path d="M 682.493,815.705 L 682.64,921.153" data-line="10.0" stroke-width="45.0" fill="none" stroke="url(&quot;#theme-accent-gradient-linear&quot;) rgb(73, 80, 188)"/><path d="M 602.944,972.785 L 61.809,972.605" data-line="12.0" stroke-width="45.0" fill="none" stroke="url(&quot;#theme-accent-gradient-linear&quot;) rgb(73, 80, 188)"/></g></svg>