<svg xmlns="http://www.w3.org/2000/svg" width="1024" height="1024" viewBox="31.032997131347656 -39.43400001525879 962.1719970703125 1104.4340209960938" class="colorable-icon reset-top-left-margin" data-export-recolorable-svg="true" overflow="visible" xmlns:xlink="http://www.w3.org/1999/xlink" fill="rgb(0, 0, 0)" stroke="none"><g fill="none" stroke="url(&quot;#theme-accent-gradient-linear&quot;) rgb(73, 80, 188)" stroke-width="45" stroke-linecap="round" stroke-linejoin="round"><path d="M 861.487,545.745 C 874.24,540.449 888.367,538.147 901.179,539.453 C 913.152,543.256 924.975,550.265 934.764,559.619 C 942.578,571.418 946.836,583.096 948.205,596.658 C 946.972,606.936 943.399,618.088 936.815,629.548 C 928.725,638.28 918.039,645.788 907.805,650.54 L 889.541,656.16" data-line="nan" stroke-width="45.0" fill="none" stroke="url(&quot;#theme-accent-gradient-linear&quot;) rgb(73, 80, 188)"/><path d="M 150.053,540.584 C 136.254,538.319 126.698,538.814 113.559,542.01 C 102.003,547.827 93.6,554.692 84.969,565.129 C 79.235,576.545 76.081,589.506 76.324,602.631 C 79.492,615.263 83.943,624.282 90.631,633.383 C 99.687,641.814 108.89,647.508 118.372,651.047 L 134.361,655.265" data-line="nan" stroke-width="45.0" fill="none" stroke="url(&quot;#theme-accent-gradient-linear&quot;) rgb(73, 80, 188)"/><path d="M 150.053,540.584 C 157.734,543.566 166.745,548.651 178.526,558.693 C 186.187,569.75 189.808,578.623 191.712,585.647 C 192.274,600.731 189.415,612.857 184.379,623.769 L 170.968,644.249" data-line="nan" stroke-width="45.0" fill="none" stroke="url(&quot;#theme-accent-gradient-linear&quot;) rgb(73, 80, 188)"/><path d="M 852.305,645.829 C 830.575,672.602 818.299,686.056 805.175,698.888 C 787.104,714.428 769.33,727.696 751.071,739.666 C 733.005,750.048 710.213,761.379 687.815,770.849 C 665.104,778.932 638.19,786.722 615.566,791.894 C 588.482,796.552 566.018,799.167 538.989,801.094 C 512.024,801.845 485.04,801.207 458.032,799.142 C 435.591,796.331 408.563,791.529 381.563,785.123 C 359.088,778.498 336.386,770.478 314.238,761.238 C 291.72,750.119 273.653,739.76 250.965,724.761 C 233.102,711.056 215.078,695.082 202.399,682.257 L 172.121,645.695" data-line="nan" stroke-width="45.0" fill="none" stroke="url(&quot;#theme-accent-gradient-linear&quot;) rgb(73, 80, 188)"/><path d="M 233.478,5.783 L 227.808,12.086" data-line="0.0" stroke-width="45.0" fill="none" stroke="url(&quot;#theme-accent-gradient-linear&quot;) rgb(73, 80, 188)"/><path d="M 227.808,12.086 Q 226.45899999471945,13.61549999488072 223.726,18.207" data-line="1.0" stroke-width="45.0" fill="none" stroke="url(&quot;#theme-accent-gradient-linear&quot;) rgb(73, 80, 188)"/><path d="M 223.726,18.207 L 221.749,22.433" data-line="2.0" stroke-width="45.0" fill="none" stroke="url(&quot;#theme-accent-gradient-linear&quot;) rgb(73, 80, 188)"/><path d="M 221.749,22.433 L 220.405,26.432" data-line="3.0" stroke-width="45.0" fill="none" stroke="url(&quot;#theme-accent-gradient-linear&quot;) rgb(73, 80, 188)"/><path d="M 220.405,26.432 L 219.744,29.732" data-line="4.0" stroke-width="45.0" fill="none" stroke="url(&quot;#theme-accent-gradient-linear&quot;) rgb(73, 80, 188)"/><path d="M 219.744,29.732 L 219.852,425.82" data-line="5.0" stroke-width="45.0" fill="none" stroke="url(&quot;#theme-accent-gradient-linear&quot;) rgb(73, 80, 188)"/><path d="M 219.852,425.82 L 220.433,428.454" data-line="6.0" stroke-width="45.0" fill="none" stroke="url(&quot;#theme-accent-gradient-linear&quot;) rgb(73, 80, 188)"/><path d="M 220.433,428.454 L 221.576,431.903" data-line="7.0" stroke-width="45.0" fill="none" stroke="url(&quot;#theme-accent-gradient-linear&quot;) rgb(73, 80, 188)"/><path d="M 221.576,431.903 L 223.439,435.744" data-line="8.0" stroke-width="45.0" fill="none" stroke="url(&quot;#theme-accent-gradient-linear&quot;) rgb(73, 80, 188)"/><path d="M 223.439,435.744 L 225.681,439.344" data-line="9.0" stroke-width="45.0" fill="none" stroke="url(&quot;#theme-accent-gradient-linear&quot;) rgb(73, 80, 188)"/><path d="M 225.681,439.344 L 228.117,442.282" data-line="10.0" stroke-width="45.0" fill="none" stroke="url(&quot;#theme-accent-gradient-linear&quot;) rgb(73, 80, 188)"/><path d="M 228.117,442.282 L 230.343,444.335" data-line="11.0" stroke-width="45.0" fill="none" stroke="url(&quot;#theme-accent-gradient-linear&quot;) rgb(73, 80, 188)"/><path d="M 230.343,444.335 L 232.7,446.018" data-line="12.0" stroke-width="45.0" fill="none" stroke="url(&quot;#theme-accent-gradient-linear&quot;) rgb(73, 80, 188)"/><path d="M 232.7,446.018 Q 235.1789999967333,447.4259999939552 238.126,448.55" data-line="13.0" stroke-width="45.0" fill="none" stroke="url(&quot;#theme-accent-gradient-linear&quot;) rgb(73, 80, 188)"/><path d="M 238.126,448.55 Q 241.43000000038143,449.60399999790195 243.75,450.038" data-line="14.0" stroke-width="45.0" fill="none" stroke="url(&quot;#theme-accent-gradient-linear&quot;) rgb(73, 80, 188)"/><path d="M 243.75,450.038 L 781.473,449.813" data-line="15.0" stroke-width="45.0" fill="none" stroke="url(&quot;#theme-accent-gradient-linear&quot;) rgb(73, 80, 188)"/><path d="M 781.473,449.813 Q 783.7250016370389,449.30499780505977 787.045,448.297" data-line="16.0" stroke-width="45.0" fill="none" stroke="url(&quot;#theme-accent-gradient-linear&quot;) rgb(73, 80, 188)"/><path d="M 787.045,448.297 L 790.291,446.905" data-line="17.0" stroke-width="45.0" fill="none" stroke="url(&quot;#theme-accent-gradient-linear&quot;) rgb(73, 80, 188)"/><path d="M 790.291,446.905 L 793.424,445.047" data-line="18.0" stroke-width="45.0" fill="none" stroke="url(&quot;#theme-accent-gradient-linear&quot;) rgb(73, 80, 188)"/><path d="M 793.424,445.047 L 796.293,442.711" data-line="19.0" stroke-width="45.0" fill="none" stroke="url(&quot;#theme-accent-gradient-linear&quot;) rgb(73, 80, 188)"/><path d="M 796.293,442.711 L 798.887,439.979" data-line="20.0" stroke-width="45.0" fill="none" stroke="url(&quot;#theme-accent-gradient-linear&quot;) rgb(73, 80, 188)"/><path d="M 798.887,439.979 L 800.927,437.388" data-line="21.0" stroke-width="45.0" fill="none" stroke="url(&quot;#theme-accent-gradient-linear&quot;) rgb(73, 80, 188)"/><path d="M 800.927,437.388 L 802.609,434.561" data-line="22.0" stroke-width="45.0" fill="none" stroke="url(&quot;#theme-accent-gradient-linear&quot;) rgb(73, 80, 188)"/><path d="M 802.6089999962637,434.5609999982826 A 38.0780683321562,38.0780683321562 0 0,0 804.8079999961612,428.45099999897843" data-line="23.0" stroke-width="45.0" fill="none" stroke="url(&quot;#theme-accent-gradient-linear&quot;) rgb(73, 80, 188)"/><path d="M 804.808,428.451 L 805.38,26.911" data-line="24.0" stroke-width="45.0" fill="none" stroke="url(&quot;#theme-accent-gradient-linear&quot;) rgb(73, 80, 188)"/><path d="M 805.38,26.911 L 804.765,24.399" data-line="25.0" stroke-width="45.0" fill="none" stroke="url(&quot;#theme-accent-gradient-linear&quot;) rgb(73, 80, 188)"/><path d="M 804.765,24.399 L 803.937,22.045" data-line="26.0" stroke-width="45.0" fill="none" stroke="url(&quot;#theme-accent-gradient-linear&quot;) rgb(73, 80, 188)"/><path d="M 803.937,22.045 L 802.688,19.452" data-line="27.0" stroke-width="45.0" fill="none" stroke="url(&quot;#theme-accent-gradient-linear&quot;) rgb(73, 80, 188)"/><path d="M 802.688,19.452 L 801.287,17.129" data-line="28.0" stroke-width="45.0" fill="none" stroke="url(&quot;#theme-accent-gradient-linear&quot;) rgb(73, 80, 188)"/><path d="M 801.287,17.129 L 799.41,14.687" data-line="29.0" stroke-width="45.0" fill="none" stroke="url(&quot;#theme-accent-gradient-linear&quot;) rgb(73, 80, 188)"/><path d="M 799.41,14.687 L 797.42,12.559" data-line="30.0" stroke-width="45.0" fill="none" stroke="url(&quot;#theme-accent-gradient-linear&quot;) rgb(73, 80, 188)"/><path d="M 797.42,12.559 L 794.966,10.436" data-line="31.0" stroke-width="45.0" fill="none" stroke="url(&quot;#theme-accent-gradient-linear&quot;) rgb(73, 80, 188)"/><path d="M 794.966,10.436 L 792.235,8.612" data-line="32.0" stroke-width="45.0" fill="none" stroke="url(&quot;#theme-accent-gradient-linear&quot;) rgb(73, 80, 188)"/><path d="M 792.235,8.612 L 788.708,6.943" data-line="33.0" stroke-width="45.0" fill="none" stroke="url(&quot;#theme-accent-gradient-linear&quot;) rgb(73, 80, 188)"/><path d="M 788.708,6.943 L 784.533,5.566" data-line="34.0" stroke-width="45.0" fill="none" stroke="url(&quot;#theme-accent-gradient-linear&quot;) rgb(73, 80, 188)"/><path d="M 784.533,5.566 L 233.478,5.783" data-line="35.0" stroke-width="45.0" fill="none" stroke="url(&quot;#theme-accent-gradient-linear&quot;) rgb(73, 80, 188)"/><path d="M 557.238,161.484 L 444.976,272.711" data-line="38.0" stroke-width="45.0" fill="none" stroke="url(&quot;#theme-accent-gradient-linear&quot;) rgb(73, 80, 188)"/><path d="M 557.238,161.484 L 560.528,159.629" data-line="39.0" stroke-width="45.0" fill="none" stroke="url(&quot;#theme-accent-gradient-linear&quot;) rgb(73, 80, 188)"/><path d="M 560.528,159.629 L 563.322,158.481" data-line="40.0" stroke-width="45.0" fill="none" stroke="url(&quot;#theme-accent-gradient-linear&quot;) rgb(73, 80, 188)"/><path d="M 563.322,158.481 L 565.799,157.794" data-line="41.0" stroke-width="45.0" fill="none" stroke="url(&quot;#theme-accent-gradient-linear&quot;) rgb(73, 80, 188)"/><path d="M 565.799,157.794 Q 568.2570005520868,157.30549986896497 570.547,157.083" data-line="42.0" stroke-width="45.0" fill="none" stroke="url(&quot;#theme-accent-gradient-linear&quot;) rgb(73, 80, 188)"/><path d="M 570.547,157.083 Q 573.2089971516758,156.92700036149947 575.183,157.055" data-line="43.0" stroke-width="45.0" fill="none" stroke="url(&quot;#theme-accent-gradient-linear&quot;) rgb(73, 80, 188)"/><path d="M 575.1829922663954,157.0550981836017 A 33.60129020202208,33.60129020202208 0 0,1 585.0073635504059,159.34808974168138" data-line="44.0" stroke-width="45.0" fill="none" stroke="url(&quot;#theme-accent-gradient-linear&quot;) rgb(73, 80, 188)"/><path d="M 585.007,159.349 L 587.69,160.599" data-line="45.0" stroke-width="45.0" fill="none" stroke="url(&quot;#theme-accent-gradient-linear&quot;) rgb(73, 80, 188)"/><path d="M 587.69,160.599 L 589.927,161.989" data-line="46.0" stroke-width="45.0" fill="none" stroke="url(&quot;#theme-accent-gradient-linear&quot;) rgb(73, 80, 188)"/><path d="M 589.927,161.989 L 732.456,306.342" data-line="47.0" stroke-width="45.0" fill="none" stroke="url(&quot;#theme-accent-gradient-linear&quot;) rgb(73, 80, 188)"/><path d="M 286.244,342.136 L 384.52,244.878" data-line="48.0" stroke-width="45.0" fill="none" stroke="url(&quot;#theme-accent-gradient-linear&quot;) rgb(73, 80, 188)"/><path d="M 384.52,244.878 L 387.179,243.386" data-line="49.0" stroke-width="45.0" fill="none" stroke="url(&quot;#theme-accent-gradient-linear&quot;) rgb(73, 80, 188)"/><path d="M 387.179,243.386 L 390.499,241.961" data-line="50.0" stroke-width="45.0" fill="none" stroke="url(&quot;#theme-accent-gradient-linear&quot;) rgb(73, 80, 188)"/><path d="M 390.499,241.961 L 393.974,240.861" data-line="51.0" stroke-width="45.0" fill="none" stroke="url(&quot;#theme-accent-gradient-linear&quot;) rgb(73, 80, 188)"/><path d="M 393.974,240.861 L 397.266,240.174" data-line="52.0" stroke-width="45.0" fill="none" stroke="url(&quot;#theme-accent-gradient-linear&quot;) rgb(73, 80, 188)"/><path d="M 397.266,240.174 L 399.887,239.888" data-line="53.0" stroke-width="45.0" fill="none" stroke="url(&quot;#theme-accent-gradient-linear&quot;) rgb(73, 80, 188)"/><path d="M 399.887,239.888 L 402.488,239.977" data-line="54.0" stroke-width="45.0" fill="none" stroke="url(&quot;#theme-accent-gradient-linear&quot;) rgb(73, 80, 188)"/><path d="M 402.488,239.977 L 405.32,240.465" data-line="55.0" stroke-width="45.0" fill="none" stroke="url(&quot;#theme-accent-gradient-linear&quot;) rgb(73, 80, 188)"/><path d="M 405.32,240.465 L 409.078,241.577" data-line="56.0" stroke-width="45.0" fill="none" stroke="url(&quot;#theme-accent-gradient-linear&quot;) rgb(73, 80, 188)"/><path d="M 409.078,241.577 L 412.893,243.087" data-line="57.0" stroke-width="45.0" fill="none" stroke="url(&quot;#theme-accent-gradient-linear&quot;) rgb(73, 80, 188)"/><path d="M 412.8929999999632,243.08700000007823 A 44.18455229894844,44.18455229894844 0 0,1 419.17699999996,246.6960000000581" data-line="58.0" stroke-width="45.0" fill="none" stroke="url(&quot;#theme-accent-gradient-linear&quot;) rgb(73, 80, 188)"/><path d="M 419.177,246.696 L 501.245,331.145" data-line="59.0" stroke-width="45.0" fill="none" stroke="url(&quot;#theme-accent-gradient-linear&quot;) rgb(73, 80, 188)"/><path d="M 831.4173784694492,599.841938750061 A 111.51268817435704,111.51268817435704 0 0,0 850.9397316561979,643.1326067648032" data-line="61.0" stroke-width="45.0" fill="none" stroke="url(&quot;#theme-accent-gradient-linear&quot;) rgb(73, 80, 188)"/><path d="M 831.747,599.772 L 831.528,595.434" data-line="62.0" stroke-width="45.0" fill="none" stroke="url(&quot;#theme-accent-gradient-linear&quot;) rgb(73, 80, 188)"/><path d="M 831.5238628734795,595.4339705976136 A 54.822339163169666,54.822339163169666 0 0,1 836.216074220237,573.6290328610794" data-line="63.0" stroke-width="45.0" fill="none" stroke="url(&quot;#theme-accent-gradient-linear&quot;) rgb(73, 80, 188)"/><path d="M 836.216,573.629 C 838.0191473895237,569.5643264530711 840.9683472441092,564.4886596939696 844.411,560.229" data-line="64.0" stroke-width="45.0" fill="none" stroke="url(&quot;#theme-accent-gradient-linear&quot;) rgb(73, 80, 188)"/><path d="M 844.411,560.229 L 848.271,555.859" data-line="65.0" stroke-width="45.0" fill="none" stroke="url(&quot;#theme-accent-gradient-linear&quot;) rgb(73, 80, 188)"/><path d="M 848.271,555.859 L 852.443,551.989" data-line="66.0" stroke-width="45.0" fill="none" stroke="url(&quot;#theme-accent-gradient-linear&quot;) rgb(73, 80, 188)"/><path d="M 852.443,551.989 L 856.937,548.556" data-line="67.0" stroke-width="45.0" fill="none" stroke="url(&quot;#theme-accent-gradient-linear&quot;) rgb(73, 80, 188)"/><path d="M 856.937,548.556 L 861.487,545.745" data-line="68.0" stroke-width="45.0" fill="none" stroke="url(&quot;#theme-accent-gradient-linear&quot;) rgb(73, 80, 188)"/><path d="M 868.69,650.746 L 853.481,644.363" data-line="70.0" stroke-width="45.0" fill="none" stroke="url(&quot;#theme-accent-gradient-linear&quot;) rgb(73, 80, 188)"/><path d="M 868.69,650.746 L 889.541,656.16" data-line="71.0" stroke-width="45.0" fill="none" stroke="url(&quot;#theme-accent-gradient-linear&quot;) rgb(73, 80, 188)"/><path d="M 169.517,646.408 L 134.361,655.265" data-line="74.0" stroke-width="45.0" fill="none" stroke="url(&quot;#theme-accent-gradient-linear&quot;) rgb(73, 80, 188)"/><path d="M 134.341,1019.926 L 134.361,655.265" data-line="75.0" stroke-width="45.0" fill="none" stroke="url(&quot;#theme-accent-gradient-linear&quot;) rgb(73, 80, 188)"/><path d="M 76.033,1020.0 L 190.057,1019.99" data-line="76.0" stroke-width="45.0" fill="none" stroke="url(&quot;#theme-accent-gradient-linear&quot;) rgb(73, 80, 188)"/><path d="M 889.535,1019.907 L 889.541,656.16" data-line="78.0" stroke-width="45.0" fill="none" stroke="url(&quot;#theme-accent-gradient-linear&quot;) rgb(73, 80, 188)"/><path d="M 832.752,1019.998 L 945.277,1019.952" data-line="79.0" stroke-width="45.0" fill="none" stroke="url(&quot;#theme-accent-gradient-linear&quot;) rgb(73, 80, 188)"/></g></svg>