<svg xmlns="http://www.w3.org/2000/svg" width="1024" height="1024" viewBox="-39.85962152481079 -27.67099952697754 1104.1629028320312 1079.3569946289062" class="colorable-icon reset-top-left-margin" data-export-recolorable-svg="true" overflow="visible" xmlns:xlink="http://www.w3.org/1999/xlink" fill="rgb(0, 0, 0)" stroke="none"><g fill="none" stroke="url(&quot;#theme-accent-gradient-linear&quot;) rgb(73, 80, 188)" stroke-width="45" stroke-linecap="round" stroke-linejoin="round"><path d="M 932.408,142.846 C 949.891,143.251 963.897,142.403 970.978,141.169 C 978.513,138.92 986.099,135.586 998.509,127.154 C 1009.081,115.298 1016.157,101.901 1018.991,92.343 C 1019.773,86.787 1019.242,70.092 1015.6,57.468 C 1012.524,50.929 1007.569,43.163 996.003,31.413 C 983.737,23.758 972.095,19.611 959.671,17.631 L 905.792,17.329" data-line="nan" stroke-width="45.0" fill="none" stroke="url(&quot;#theme-accent-gradient-linear&quot;) rgb(73, 80, 188)"/><path d="M 78.798,17.337 C 60.045,18.027 50.634,19.803 37.144,25.287 C 24.743,34.283 15.421,44.95 9.392,55.634 C 5.047,69.317 4.0,82.585 6.4,97.427 C 11.338,109.294 20.587,122.401 30.275,130.993 C 39.36,136.276 52.646,141.072 73.694,143.168 L 85.719,142.846" data-line="nan" stroke-width="45.0" fill="none" stroke="url(&quot;#theme-accent-gradient-linear&quot;) rgb(73, 80, 188)"/><path d="M 949.823,637.444 C 948.239,657.083 945.3,667.071 942.987,672.172 C 936.638,682.272 932.552,687.127 922.947,695.851 C 912.991,702.075 897.998,707.282 888.155,708.488 L 858.824,709.044" data-line="nan" stroke-width="45.0" fill="none" stroke="url(&quot;#theme-accent-gradient-linear&quot;) rgb(73, 80, 188)"/><path d="M 144.044,709.012 C 126.81,707.994 119.543,706.375 112.202,703.654 C 99.862,696.376 89.164,686.206 81.155,674.477 C 75.72,660.474 73.797,647.418 73.663,620.797" data-line="nan" stroke-width="45.0" fill="none" stroke="url(&quot;#theme-accent-gradient-linear&quot;) rgb(73, 80, 188)"/><path d="M 85.719,142.846 L 932.408,142.846" data-line="0.0" stroke-width="45.0" fill="none" stroke="url(&quot;#theme-accent-gradient-linear&quot;) rgb(73, 80, 188)"/><path d="M 949.891,143.251 L 949.823,637.444" data-line="1.0" stroke-width="45.0" fill="none" stroke="url(&quot;#theme-accent-gradient-linear&quot;) rgb(73, 80, 188)"/><path d="M 511.619,709.058 L 511.68,1006.303" data-line="3.0" stroke-width="45.0" fill="none" stroke="url(&quot;#theme-accent-gradient-linear&quot;) rgb(73, 80, 188)"/><path d="M 333.658,1006.686 L 511.89,826.561" data-line="4.0" stroke-width="45.0" fill="none" stroke="url(&quot;#theme-accent-gradient-linear&quot;) rgb(73, 80, 188)"/><path d="M 511.89,826.561 L 688.624,1002.616" data-line="6.0" stroke-width="45.0" fill="none" stroke="url(&quot;#theme-accent-gradient-linear&quot;) rgb(73, 80, 188)"/><path d="M 513.487,474.077 L 655.509,263.335" data-line="9.0" stroke-width="45.0" fill="none" stroke="url(&quot;#theme-accent-gradient-linear&quot;) rgb(73, 80, 188)"/><path d="M 513.487,474.077 L 380.7,354.756" data-line="10.0" stroke-width="45.0" fill="none" stroke="url(&quot;#theme-accent-gradient-linear&quot;) rgb(73, 80, 188)"/><path d="M 196.051,593.77 L 380.7,354.756" data-line="11.0" stroke-width="45.0" fill="none" stroke="url(&quot;#theme-accent-gradient-linear&quot;) rgb(73, 80, 188)"/><path d="M 671.023,399.118 L 836.206,399.001" data-line="16.0" stroke-width="45.0" fill="none" stroke="url(&quot;#theme-accent-gradient-linear&quot;) rgb(73, 80, 188)"/><path d="M 671.023,511.707 L 834.292,511.517" data-line="17.0" stroke-width="45.0" fill="none" stroke="url(&quot;#theme-accent-gradient-linear&quot;) rgb(73, 80, 188)"/><path d="M 905.792,17.329 L 78.798,17.337" data-line="19.0" stroke-width="45.0" fill="none" stroke="url(&quot;#theme-accent-gradient-linear&quot;) rgb(73, 80, 188)"/><path d="M 858.824,709.044 L 144.044,709.012" data-line="22.0" stroke-width="45.0" fill="none" stroke="url(&quot;#theme-accent-gradient-linear&quot;) rgb(73, 80, 188)"/><path d="M 73.663,620.797 L 73.694,143.168" data-line="24.0" stroke-width="45.0" fill="none" stroke="url(&quot;#theme-accent-gradient-linear&quot;) rgb(73, 80, 188)"/></g></svg>