<svg xmlns="http://www.w3.org/2000/svg" width="1024" height="1024" viewBox="-39.74942207336426 119.59100341796875 1104.5224609375 784.7650146484375" class="colorable-icon reset-top-left-margin" data-export-recolorable-svg="true" overflow="visible" xmlns:xlink="http://www.w3.org/1999/xlink" fill="rgb(0, 0, 0)" stroke="none"><g fill="none" stroke="url(&quot;#theme-accent-gradient-linear&quot;) rgb(73, 80, 188)" stroke-width="45" stroke-linecap="round" stroke-linejoin="round"><path d="M 919.634,618.151 C 936.695,621.326 953.057,625.599 969.582,631.602 C 983.595,638.441 995.034,645.754 1005.89,655.378 C 1012.384,663.572 1016.809,672.438 1019.773,683.72 C 1019.783,692.758 1016.461,705.595 1011.955,714.637 C 1004.706,724.337 994.386,734.448 985.264,741.476 L 966.936,753.518" data-line="nan" stroke-width="45.0" fill="none" stroke="url(&quot;#theme-accent-gradient-linear&quot;) rgb(73, 80, 188)"/><path d="M 966.936,753.518 C 949.609,764.261 936.159,771.427 913.636,781.933 C 883.757,794.574 831.903,812.765 779.345,827.722 C 723.749,840.169 666.223,849.682 608.84,856.005 L 553.343,859.211" data-line="nan" stroke-width="45.0" fill="none" stroke="url(&quot;#theme-accent-gradient-linear&quot;) rgb(73, 80, 188)"/><path d="M 480.456,859.356 C 427.625,856.769 371.959,851.055 316.989,842.684 C 263.335,831.646 213.071,818.474 162.295,802.07 Q 112.036,782.241 75.339,764.185" data-line="nan" stroke-width="45.0" fill="none" stroke="url(&quot;#theme-accent-gradient-linear&quot;) rgb(73, 80, 188)"/><path d="M 75.339,764.185 C 54.675,751.81 34.215,737.875 23.219,728.099 C 12.615,715.036 8.67,707.797 6.197,701.332 C 4.0,688.633 6.058,675.313 8.014,669.733 C 11.687,662.878 16.515,656.553 22.638,650.384 C 35.953,640.496 53.694,631.503 72.226,625.004 C 95.032,619.443 121.716,615.485 141.942,613.58 L 171.924,613.286" data-line="nan" stroke-width="45.0" fill="none" stroke="url(&quot;#theme-accent-gradient-linear&quot;) rgb(73, 80, 188)"/><path d="M 772.368,234.624 C 768.758,221.156 763.247,207.773 757.743,198.868 C 750.52,190.122 741.987,182.357 728.213,173.569 C 714.758,168.136 701.744,165.284 684.277,164.644 C 671.203,166.589 551.962,207.851 534.111,212.068 C 516.215,213.848 493.948,212.748 480.571,210.181 L 458.403,203.178" data-line="nan" stroke-width="45.0" fill="none" stroke="url(&quot;#theme-accent-gradient-linear&quot;) rgb(73, 80, 188)"/><path d="M 361.212,170.558 C 347.946,166.563 339.182,165.02 328.528,164.591 C 318.069,165.585 306.179,168.452 296.376,172.287 C 287.62,177.055 278.695,183.61 267.614,195.003 C 263.265,201.447 258.578,210.732 252.798,227.193 L 243.478,265.091" data-line="nan" stroke-width="45.0" fill="none" stroke="url(&quot;#theme-accent-gradient-linear&quot;) rgb(73, 80, 188)"/><path d="M 171.924,613.286 L 919.634,618.151" data-line="0.0" stroke-width="45.0" fill="none" stroke="url(&quot;#theme-accent-gradient-linear&quot;) rgb(73, 80, 188)"/><path d="M 841.851,513.443 L 182.838,513.383" data-line="1.0" stroke-width="45.0" fill="none" stroke="url(&quot;#theme-accent-gradient-linear&quot;) rgb(73, 80, 188)"/><path d="M 866.717,613.507 L 772.368,234.624" data-line="2.0" stroke-width="45.0" fill="none" stroke="url(&quot;#theme-accent-gradient-linear&quot;) rgb(73, 80, 188)"/><path d="M 458.403,203.178 L 361.212,170.558" data-line="7.0" stroke-width="45.0" fill="none" stroke="url(&quot;#theme-accent-gradient-linear&quot;) rgb(73, 80, 188)"/><path d="M 553.343,859.211 L 480.456,859.356" data-line="7.0" stroke-width="45.0" fill="none" stroke="url(&quot;#theme-accent-gradient-linear&quot;) rgb(73, 80, 188)"/><path d="M 243.478,265.091 L 157.896,613.144" data-line="9.0" stroke-width="45.0" fill="none" stroke="url(&quot;#theme-accent-gradient-linear&quot;) rgb(73, 80, 188)"/></g></svg>