<svg xmlns="http://www.w3.org/2000/svg" width="1024" height="1024" viewBox="-41 61.65299987792969 1105.9920043945312 900.7769775390625" class="colorable-icon reset-top-left-margin" data-export-recolorable-svg="true" overflow="visible" xmlns:xlink="http://www.w3.org/1999/xlink" fill="rgb(0, 0, 0)" stroke="none"><g fill="none" stroke="url(&quot;#theme-accent-gradient-linear&quot;) rgb(73, 80, 188)" stroke-width="45" stroke-linecap="round" stroke-linejoin="round"><path d="M 92.405,247.17 C 73.89,248.445 62.467,251.318 52.815,254.845 C 43.974,259.306 34.84,265.253 28.036,271.097 C 21.116,278.878 16.018,286.027 11.294,294.843 C 6.158,310.871 4.209,325.802 4.015,357.212" data-line="nan" stroke-width="45.0" fill="none" stroke="url(&quot;#theme-accent-gradient-linear&quot;) rgb(73, 80, 188)"/><path d="M 4.0,830.612 C 4.471,842.057 6.107,851.618 9.142,862.187 C 13.102,871.017 18.522,879.787 24.131,886.785 C 32.465,894.879 41.421,901.595 56.84,909.869 C 74.81,915.094 95.411,917.321 131.48,917.43" data-line="nan" stroke-width="45.0" fill="none" stroke="url(&quot;#theme-accent-gradient-linear&quot;) rgb(73, 80, 188)"/><path d="M 920.48,917.426 C 934.081,917.044 945.555,915.676 958.36,912.836 C 967.326,909.554 984.486,900.279 995.63,891.098 C 1001.87,884.231 1006.949,877.082 1011.935,867.977 C 1015.516,858.702 1017.589,850.622 1019.815,827.24 L 1019.992,795.428" data-line="nan" stroke-width="45.0" fill="none" stroke="url(&quot;#theme-accent-gradient-linear&quot;) rgb(73, 80, 188)"/><path d="M 1019.978,340.062 C 1018.627,316.927 1014.433,299.493 1010.397,290.827 C 1005.118,282.498 999.356,275.264 991.829,268.051 C 982.844,261.414 973.756,256.265 956.671,249.839 Q 940.647,247.347 909.075,247.19" data-line="nan" stroke-width="45.0" fill="none" stroke="url(&quot;#theme-accent-gradient-linear&quot;) rgb(73, 80, 188)"/><path d="M 773.586,247.165 C 766.716,245.693 762.558,243.373 756.365,236.851 C 707.068,148.128 699.512,136.416 690.579,124.942 C 682.631,117.937 672.469,111.803 662.714,108.431 L 650.016,106.716" data-line="nan" stroke-width="45.0" fill="none" stroke="url(&quot;#theme-accent-gradient-linear&quot;) rgb(73, 80, 188)"/><path d="M 371.716,106.653 C 357.631,108.805 346.711,113.045 336.146,120.258 C 327.327,129.322 319.39,141.25 304.74,167.67 L 263.904,245.279" data-line="nan" stroke-width="45.0" fill="none" stroke="url(&quot;#theme-accent-gradient-linear&quot;) rgb(73, 80, 188)"/><path d="M 258.672,246.198 L 92.405,247.17" data-line="0.0" stroke-width="45.0" fill="none" stroke="url(&quot;#theme-accent-gradient-linear&quot;) rgb(73, 80, 188)"/><path d="M 258.672,246.198 L 263.904,245.279" data-line="1.0" stroke-width="45.0" fill="none" stroke="url(&quot;#theme-accent-gradient-linear&quot;) rgb(73, 80, 188)"/><circle cx="512.4298147418035" cy="559.7975977973244" r="240.30244354330856" data-line="2.0" stroke-width="45.0" fill="none" stroke="url(&quot;#theme-accent-gradient-linear&quot;) rgb(73, 80, 188)"/><circle cx="512.3865730157368" cy="560.5626715504294" r="128.5231037616927" data-line="4.0" stroke-width="45.0" fill="none" stroke="url(&quot;#theme-accent-gradient-linear&quot;) rgb(73, 80, 188)"/><path d="M 4.015,357.212 L 4.0,830.612" data-line="6.0" stroke-width="45.0" fill="none" stroke="url(&quot;#theme-accent-gradient-linear&quot;) rgb(73, 80, 188)"/><path d="M 131.48,917.43 L 920.48,917.426" data-line="8.0" stroke-width="45.0" fill="none" stroke="url(&quot;#theme-accent-gradient-linear&quot;) rgb(73, 80, 188)"/><path d="M 1019.992,795.428 L 1019.978,340.062" data-line="10.0" stroke-width="45.0" fill="none" stroke="url(&quot;#theme-accent-gradient-linear&quot;) rgb(73, 80, 188)"/><path d="M 909.075,247.19 L 773.586,247.165" data-line="11.0" stroke-width="45.0" fill="none" stroke="url(&quot;#theme-accent-gradient-linear&quot;) rgb(73, 80, 188)"/><path d="M 650.016,106.716 L 371.716,106.653" data-line="13.0" stroke-width="45.0" fill="none" stroke="url(&quot;#theme-accent-gradient-linear&quot;) rgb(73, 80, 188)"/></g></svg>